<mxfile host="65bd71144e">
    <diagram id="lx2rpsrZEqapByVTpsra" name="Page-1">
        <mxGraphModel dx="533" dy="627" grid="1" gridSize="10" guides="1" tooltips="1" connect="1" arrows="1" fold="1" page="1" pageScale="1" pageWidth="850" pageHeight="1100" math="0" shadow="0">
            <root>
                <mxCell id="0"/>
                <mxCell id="1" parent="0"/>
                <mxCell id="2" value="" style="rounded=0;fillColor=#f5f5f5;fontColor=#333333;strokeColor=#666666;" vertex="1" parent="1">
                    <mxGeometry x="170" y="160" width="190" height="90" as="geometry"/>
                </mxCell>
                <mxCell id="3" value="RV SC" style="rounded=0;" vertex="1" parent="1">
                    <mxGeometry x="310" y="170" width="40" height="70" as="geometry"/>
                </mxCell>
                <mxCell id="4" value="Matrix" style="rounded=0;" vertex="1" parent="1">
                    <mxGeometry x="180" y="170" width="90" height="70" as="geometry"/>
                </mxCell>
                <mxCell id="5" value="L3" style="rounded=0;fillColor=#f5f5f5;fontColor=#333333;strokeColor=#666666;" vertex="1" parent="1">
                    <mxGeometry x="360" y="160" width="40" height="180" as="geometry"/>
                </mxCell>
                <mxCell id="6" value="RV BC&#xa;(SIMD RVV)" style="rounded=0;fillColor=#f5f5f5;fontColor=#333333;strokeColor=#666666;" vertex="1" parent="1">
                    <mxGeometry x="400" y="160" width="100" height="90" as="geometry"/>
                </mxCell>
                <mxCell id="7" value="RV BC&#xa;(SIMD RVV)" style="rounded=0;fillColor=#f5f5f5;fontColor=#333333;strokeColor=#666666;" vertex="1" parent="1">
                    <mxGeometry x="400" y="250" width="100" height="90" as="geometry"/>
                </mxCell>
                <mxCell id="8" value="Vector" style="rounded=0;" vertex="1" parent="1">
                    <mxGeometry x="270" y="170" width="40" height="70" as="geometry"/>
                </mxCell>
                <mxCell id="9" value="" style="rounded=0;fillColor=#f5f5f5;fontColor=#333333;strokeColor=#666666;" vertex="1" parent="1">
                    <mxGeometry x="170" y="250" width="190" height="90" as="geometry"/>
                </mxCell>
                <mxCell id="10" value="RV SC" style="rounded=0;" vertex="1" parent="1">
                    <mxGeometry x="310" y="260" width="40" height="70" as="geometry"/>
                </mxCell>
                <mxCell id="11" value="Matrix" style="rounded=0;" vertex="1" parent="1">
                    <mxGeometry x="180" y="260" width="90" height="70" as="geometry"/>
                </mxCell>
                <mxCell id="12" value="Vector" style="rounded=0;" vertex="1" parent="1">
                    <mxGeometry x="270" y="260" width="40" height="70" as="geometry"/>
                </mxCell>
                <mxCell id="13" value="NOC" style="rounded=0;fillColor=#f5f5f5;fontColor=#333333;strokeColor=#666666;" vertex="1" parent="1">
                    <mxGeometry x="170" y="340" width="330" height="20" as="geometry"/>
                </mxCell>
                <mxCell id="14" value="NN Cluster" style="rounded=0;fillColor=#f5f5f5;fontColor=#333333;strokeColor=#666666;" vertex="1" parent="1">
                    <mxGeometry x="170" y="360" width="190" height="70" as="geometry"/>
                </mxCell>
                <mxCell id="15" value="ISP" style="rounded=0;fillColor=#f5f5f5;fontColor=#333333;strokeColor=#666666;" vertex="1" parent="1">
                    <mxGeometry x="360" y="360" width="70" height="70" as="geometry"/>
                </mxCell>
                <mxCell id="16" value="LPDDR4/5" style="rounded=0;fillColor=#f5f5f5;fontColor=#333333;strokeColor=#666666;" vertex="1" parent="1">
                    <mxGeometry x="430" y="360" width="70" height="70" as="geometry"/>
                </mxCell>
            </root>
        </mxGraphModel>
    </diagram>
</mxfile>